# xmcd
#
# Track frame offsets:
#	183
#	14238
#	27623
#	40288
#	55203
#	70973
#	85803
#	99025
#	113790
#	129160
#	144183
#	156288
#	168865
#	182358
#	195203
#	209370
#	222113
#	234300
#	247838
#	261555
#	276240
#	288933
#	301343
#	314640
#	327793
#
# Disc length: 4548 seconds
#
# Revision: 0
# Processed by: cddbd v1.4PL0 Copyright (c) Steve Scherf et al.
# Submitted via: dBpowerAMP V4.0
#
DISCID=5d11c219
DTITLE=Sonny Boy Williamson - Sonny Boy Williamson
DYEAR=1900
DGENRE=Acoustic Blues
TTITLE0=Blue Bird Blues
TTITLE1=Sugar Mama Blues
TTITLE2=Black Gal Blues
TTITLE3=Collector Man Blues
TTITLE4=Decoration Blues
TTITLE5=Sunny Land
TTITLE6=Whiskey Headed Blues
TTITLE7=Deep Down In The Ground
TTITLE8=Christmas Morning Blues
TTITLE9=Little Girl Blues
TTITLE10=Bad Luck Blues
TTITLE11=Little Lwo Woman Blues
TTITLE12=T.B. Blues
TTITLE13=New Jail House Blues
TTITLE14=Honey Bee Blues
TTITLE15=I Been Dealing With The Devil
TTITLE16=New Early In The Morning
TTITLE17=My Little Machine
TTITLE18=Western Union Man
TTITLE19=Sloppy Drunk Blues
TTITLE20=Come On Baby And Take A Walk
TTITLE21=Check Up On My Baby Blues
TTITLE22=Stop Breakin' Down
TTITLE23=Hoodoo Hoodoo
TTITLE24=Better Cut That Out
EXTD=william hale
EXTT0=
EXTT1=
EXTT2=
EXTT3=
EXTT4=
EXTT5=
EXTT6=
EXTT7=
EXTT8=
EXTT9=
EXTT10=
EXTT11=
EXTT12=
EXTT13=
EXTT14=
EXTT15=
EXTT16=
EXTT17=
EXTT18=
EXTT19=
EXTT20=
EXTT21=
EXTT22=
EXTT23=
EXTT24=
PLAYORDER=
